<svg xmlns="http://www.w3.org/2000/svg" version="1.1" xmlns:xlink="http://www.w3.org/1999/xlink" xmlns:svgjs="http://svgjs.dev/svgjs" width="1000" height="1372" viewBox="0 0 1000 1372"><g transform="matrix(1,0,0,1,1.1078998073218145,0.5554958645171837)"><svg viewBox="0 0 180 247" data-background-color="#8abcd7" preserveAspectRatio="xMidYMid meet" height="1372" width="1000" xmlns="http://www.w3.org/2000/svg" xmlns:xlink="http://www.w3.org/1999/xlink"><g id="tight-bounds" transform="matrix(1,0,0,1,-0.19942196531792433,-0.09999454917223716)"><svg viewBox="0 0 180.39884393063582 247.2" height="247.2" width="180.39884393063582"><g><svg viewBox="0 0 180.39884393063582 247.2" height="247.2" width="180.39884393063582"><g><svg viewBox="0 0 180.39884393063582 247.2" height="247.2" width="180.39884393063582"><g id="textblocktransform"><svg viewBox="0 0 180.39884393063582 247.2" height="247.2" width="180.39884393063582" id="textblock"><g><svg viewBox="0 0 180.39884393063582 247.2" height="247.2" width="180.39884393063582"><g transform="matrix(1,0,0,1,0,0)"><svg width="180.39884393063582" viewBox="4.25 -34.599998474121094 25.25 34.599998474121094" height="247.2" data-palette-color="#ffffff"><path d="M29.5 0L25.7 0 25.7-15.65 8.1-15.65 8.1 0 4.25 0 4.25-34.6 8.1-34.6 8.1-19.1 25.7-19.1 25.7-34.6 29.5-34.6 29.5 0Z" opacity="1" transform="matrix(1,0,0,1,0,0)" fill="#ffffff" class="wordmark-text-0" data-fill-palette-color="primary" id="text-0"></path></svg></g></svg></g></svg></g></svg></g></svg></g><defs></defs></svg><rect width="180.39884393063582" height="247.2" fill="none" stroke="none" visibility="hidden"></rect></g></svg></g></svg>